# xmcd
#
# Track frame offsets: 
#        150
#        15887
#        31062
#        43957
#        59862
#        71377
#        85635
#        97132
#        112029
#        124210
#        138382
#        150567
#        165140
#        178677
#        193062
#        205880
#        217255
#        231712
#        245205
#        257207
#        269310
#        281615
#        294075
#        306265
#
# Disc length: 4239 seconds
#
# Revision: 4
# Processed by: cddbd v1.5.2PL0 Copyright (c) Steve Scherf et al.
# Submitted via: ExactAudioCopy v1.0b1
#
DISCID=6d108d18
DTITLE=Various Artist - Chess Blues Piano Greats
DYEAR=1997
DGENRE=Blues
TTITLE0=Eddie Boyd - 24 Hours (mono)
TTITLE1=Eddie Boyd - Got Lonesome Here (mono)
TTITLE2=Eddie Boyd - I Got The Blues (mono)
TTITLE3=Eddie Boyd - I Began To Sing The Blues (mono)
TTITLE4=Eddie Boyd - Rosa Lee Swing (mono)
TTITLE5=Eddie Boyd - Blues For Baby (mono)
TTITLE6=Eddie Boyd - Hard Time Gettin' Started (mono)
TTITLE7=Eddie Boyd - Third Degree (mono)
TTITLE8=Eddie Boyd - Just A Fool (mono)
TTITLE9=Eddie Boyd - Rattin' and Running Around (mono)
TTITLE10=Eddie Boyd - Hush Baby, Don't You Cry (mono)
TTITLE11=Eddie Boyd - Instrumental (take 2) (mono)
TTITLE12=Eddie Boyd - Picture In the Frame (mono)
TTITLE13=Eddie Boyd - Nothing But Trouble (mono)
TTITLE14=Eddie Boyd - Got Me Seein' Double (mono)
TTITLE15=Eddie Boyd - What's The Matter Baby (mono)
TTITLE16=Eddie Boyd - Life Gets To Be A Burden (mono)
TTITLE17=Eddie Boyd - Hotel Blues (mono)
TTITLE18=Eddie Boyd - Come On Home (mono)
TTITLE19=Eddie Boyd - Five Long Years (mono)
TTITLE20=Otis Spann - It Must Have Been The Devil (mono)
TTITLE21=Otis Spann - Five Spot (mono)
TTITLE22=Otis Spann - I'm Leaving You (mono)
TTITLE23=Otis Spann - I'm In Love With You Baby (mono)
EXTD=
EXTT0=
EXTT1=
EXTT2=
EXTT3=
EXTT4=
EXTT5=
EXTT6=
EXTT7=
EXTT8=
EXTT9=
EXTT10=
EXTT11=
EXTT12=
EXTT13=
EXTT14=
EXTT15=
EXTT16=
EXTT17=
EXTT18=
EXTT19=
EXTT20=
EXTT21=
EXTT22=
EXTT23=
PLAYORDER=
